<svg xmlns="http://www.w3.org/2000/svg" width="128" height="96" viewBox="-64 -48 128 96"><rect x="-47" y="-33" width="88" height="12" rx="4" fill="#0d171f" stroke="#536168" stroke-width="1"/><path d="M-41 -31L-41 -23" fill="none" stroke="#4c5556" stroke-width="2"/><path d="M-32 -31L-32 -23" fill="none" stroke="#4c5556" stroke-width="2"/><path d="M-23 -31L-23 -23" fill="none" stroke="#4c5556" stroke-width="2"/><path d="M-14 -31L-14 -23" fill="none" stroke="#4c5556" stroke-width="2"/><path d="M-5 -31L-5 -23" fill="none" stroke="#4c5556" stroke-width="2"/><path d="M4 -31L4 -23" fill="none" stroke="#4c5556" stroke-width="2"/><path d="M13 -31L13 -23" fill="none" stroke="#4c5556" stroke-width="2"/><path d="M22 -31L22 -23" fill="none" stroke="#4c5556" stroke-width="2"/><path d="M31 -31L31 -23" fill="none" stroke="#4c5556" stroke-width="2"/><rect x="-47" y="21" width="88" height="12" rx="4" fill="#0d171f" stroke="#536168" stroke-width="1"/><path d="M-41 23L-41 31" fill="none" stroke="#4c5556" stroke-width="2"/><path d="M-32 23L-32 31" fill="none" stroke="#4c5556" stroke-width="2"/><path d="M-23 23L-23 31" fill="none" stroke="#4c5556" stroke-width="2"/><path d="M-14 23L-14 31" fill="none" stroke="#4c5556" stroke-width="2"/><path d="M-5 23L-5 31" fill="none" stroke="#4c5556" stroke-width="2"/><path d="M4 23L4 31" fill="none" stroke="#4c5556" stroke-width="2"/><path d="M13 23L13 31" fill="none" stroke="#4c5556" stroke-width="2"/><path d="M22 23L22 31" fill="none" stroke="#4c5556" stroke-width="2"/><path d="M31 23L31 31" fill="none" stroke="#4c5556" stroke-width="2"/><polygon points="-46,-23 13,-25 48,-10 52,0 48,10 13,25 -46,23 -50,0" fill="#793b32" stroke="#101a23" stroke-width="2" stroke-linejoin="round"/><polygon points="-34,-18 20,-18 36,-8 36,8 20,18 -34,18" fill="#b25b42" stroke="#dab08b" stroke-width="1" stroke-linejoin="round"/><polygon points="8,-23 36,-14 18,-8 -3,-9" fill="#d34e32" stroke="#dab08b" stroke-width="1" stroke-linejoin="round"/><polygon points="8,23 36,14 18,8 -3,9" fill="#d34e32" stroke="#dab08b" stroke-width="1" stroke-linejoin="round"/><path d="M-34 -12L-34 12" fill="none" stroke="#321f25" stroke-width="3"/><path d="M-28 -12L-28 12" fill="none" stroke="#321f25" stroke-width="3"/><path d="M-22 -12L-22 12" fill="none" stroke="#321f25" stroke-width="3"/><rect x="30" y="-18" width="7" height="4" rx="1" fill="#ffc16a" stroke="none" stroke-width="1"/><rect x="30" y="14" width="7" height="4" rx="1" fill="#ffc16a" stroke="none" stroke-width="1"/><polygon points="-17,0 -28,-6 -28,6" fill="#ffc16a" stroke="none" stroke-width="2" stroke-linejoin="round"/></svg>
