<svg xmlns="http://www.w3.org/2000/svg" width="128" height="96" viewBox="-64 -48 128 96"><rect x="-36" y="-33" width="16" height="12" rx="3" fill="#0d171f" stroke="#dab08b" stroke-width="1"/><path d="M-33 -30L-23 -30" fill="none" stroke="#4b5960" stroke-width="2"/><rect x="-12" y="-33" width="16" height="12" rx="3" fill="#0d171f" stroke="#dab08b" stroke-width="1"/><path d="M-9 -30L1 -30" fill="none" stroke="#4b5960" stroke-width="2"/><rect x="20" y="-33" width="16" height="12" rx="3" fill="#0d171f" stroke="#dab08b" stroke-width="1"/><path d="M23 -30L33 -30" fill="none" stroke="#4b5960" stroke-width="2"/><rect x="-36" y="21" width="16" height="12" rx="3" fill="#0d171f" stroke="#dab08b" stroke-width="1"/><path d="M-33 24L-23 24" fill="none" stroke="#4b5960" stroke-width="2"/><rect x="-12" y="21" width="16" height="12" rx="3" fill="#0d171f" stroke="#dab08b" stroke-width="1"/><path d="M-9 24L1 24" fill="none" stroke="#4b5960" stroke-width="2"/><rect x="20" y="21" width="16" height="12" rx="3" fill="#0d171f" stroke="#dab08b" stroke-width="1"/><path d="M23 24L33 24" fill="none" stroke="#4b5960" stroke-width="2"/><polygon points="-40,-23 13,-25 48,-10 52,0 48,10 13,25 -40,23 -44,0" fill="#793b32" stroke="#101a23" stroke-width="2" stroke-linejoin="round"/><polygon points="-34,-18 20,-18 36,-8 36,8 20,18 -34,18" fill="#b25b42" stroke="#dab08b" stroke-width="1" stroke-linejoin="round"/><polygon points="8,-23 36,-14 18,-8 -3,-9" fill="#d34e32" stroke="#dab08b" stroke-width="1" stroke-linejoin="round"/><polygon points="8,23 36,14 18,8 -3,9" fill="#d34e32" stroke="#dab08b" stroke-width="1" stroke-linejoin="round"/><path d="M-34 -12L-34 12" fill="none" stroke="#321f25" stroke-width="3"/><path d="M-28 -12L-28 12" fill="none" stroke="#321f25" stroke-width="3"/><path d="M-22 -12L-22 12" fill="none" stroke="#321f25" stroke-width="3"/><rect x="30" y="-18" width="7" height="4" rx="1" fill="#ffc16a" stroke="none" stroke-width="1"/><rect x="30" y="14" width="7" height="4" rx="1" fill="#ffc16a" stroke="none" stroke-width="1"/><polygon points="-17,0 -28,-6 -28,6" fill="#ffc16a" stroke="none" stroke-width="2" stroke-linejoin="round"/></svg>
